  0
SECTION
  2
HEADER
  9
$ACADVER
  1
AC1015
  9
$ACADMAINTVER
 70
     6
  9
$DWGCODEPAGE
  3
ANSI_1252
  9
$INSBASE
 10
0.0
 20
0.0
 30
0.0
  9
$EXTMIN
 10
-3.9679342039
 20
-1.1923432595
 30
0.0
  9
$EXTMAX
 10
3.9679470883
 20
1.1374684648
 30
0.0
  9
$LIMMIN
 10
0.0
 20
0.0
  9
$LIMMAX
 10
12.0
 20
9.0
  9
$ORTHOMODE
 70
     0
  9
$REGENMODE
 70
     1
  9
$FILLMODE
 70
     1
  9
$QTEXTMODE
 70
     0
  9
$MIRRTEXT
 70
     1
  9
$LTSCALE
 40
1.0
  9
$ATTMODE
 70
     1
  9
$TEXTSIZE
 40
0.125
  9
$TRACEWID
 40
0.05
  9
$TEXTSTYLE
  7
Standard
  9
$CLAYER
  8
0
  9
$CELTYPE
  6
ByLayer
  9
$CECOLOR
 62
   256
  9
$CELTSCALE
 40
1.0
  9
$DISPSILH
 70
     0
  9
$DIMSCALE
 40
1.0
  9
$DIMASZ
 40
0.13
  9
$DIMEXO
 40
0.0
  9
$DIMDLI
 40
0.38
  9
$DIMRND
 40
0.0
  9
$DIMDLE
 40
0.0
  9
$DIMEXE
 40
0.125
  9
$DIMTP
 40
0.0
  9
$DIMTM
 40
0.0
  9
$DIMTXT
 40
0.125
  9
$DIMCEN
 40
0.09
  9
$DIMTSZ
 40
0.0
  9
$DIMTOL
 70
     0
  9
$DIMLIM
 70
     0
  9
$DIMTIH
 70
     1
  9
$DIMTOH
 70
     1
  9
$DIMSE1
 70
     0
  9
$DIMSE2
 70
     0
  9
$DIMTAD
 70
     0
  9
$DIMZIN
 70
     1
  9
$DIMBLK
  1

  9
$DIMASO
 70
     1
  9
$DIMSHO
 70
     1
  9
$DIMPOST
  1

  9
$DIMAPOST
  1

  9
$DIMALT
 70
     0
  9
$DIMALTD
 70
     2
  9
$DIMALTF
 40
25.4
  9
$DIMLFAC
 40
1.0
  9
$DIMTOFL
 70
     0
  9
$DIMTVP
 40
0.0
  9
$DIMTIX
 70
     0
  9
$DIMSOXD
 70
     0
  9
$DIMSAH
 70
     0
  9
$DIMBLK1
  1

  9
$DIMBLK2
  1

  9
$DIMSTYLE
  2
Standard
  9
$DIMCLRD
 70
     0
  9
$DIMCLRE
 70
     0
  9
$DIMCLRT
 70
     0
  9
$DIMTFAC
 40
1.0
  9
$DIMGAP
 40
0.06
  9
$DIMJUST
 70
     0
  9
$DIMSD1
 70
     0
  9
$DIMSD2
 70
     0
  9
$DIMTOLJ
 70
     1
  9
$DIMTZIN
 70
     1
  9
$DIMALTZ
 70
     0
  9
$DIMALTTZ
 70
     0
  9
$DIMUPT
 70
     0
  9
$DIMDEC
 70
     2
  9
$DIMTDEC
 70
     2
  9
$DIMALTU
 70
     2
  9
$DIMALTTD
 70
     2
  9
$DIMTXSTY
  7
Standard
  9
$DIMAUNIT
 70
     0
  9
$DIMADEC
 70
     2
  9
$DIMALTRND
 40
0.0
  9
$DIMAZIN
 70
     0
  9
$DIMDSEP
 70
    46
  9
$DIMATFIT
 70
     3
  9
$DIMFRAC
 70
     0
  9
$DIMLDRBLK
  1

  9
$DIMLUNIT
 70
     2
  9
$DIMLWD
 70
    -2
  9
$DIMLWE
 70
    -2
  9
$DIMTMOVE
 70
     0
  9
$LUNITS
 70
     2
  9
$LUPREC
 70
     2
  9
$SKETCHINC
 40
0.1
  9
$FILLETRAD
 40
0.0
  9
$AUNITS
 70
     0
  9
$AUPREC
 70
     2
  9
$MENU
  1
.
  9
$ELEVATION
 40
0.0
  9
$PELEVATION
 40
0.0
  9
$THICKNESS
 40
0.0
  9
$LIMCHECK
 70
     0
  9
$CHAMFERA
 40
0.0
  9
$CHAMFERB
 40
0.0
  9
$CHAMFERC
 40
0.0
  9
$CHAMFERD
 40
0.0
  9
$SKPOLY
 70
     0
  9
$TDCREATE
 40
2460358.407155371
  9
$TDUCREATE
 40
2460358.740488704
  9
$TDUPDATE
 40
2460358.407670266
  9
$TDUUPDATE
 40
2460358.7410036
  9
$TDINDWG
 40
0.0000000116
  9
$TDUSRTIMER
 40
0.0000000116
  9
$USRTIMER
 70
     1
  9
$ANGBASE
 50
0.0
  9
$ANGDIR
 70
     0
  9
$PDMODE
 70
     0
  9
$PDSIZE
 40
-1.0
  9
$PLINEWID
 40
0.0
  9
$SPLFRAME
 70
     0
  9
$SPLINETYPE
 70
     6
  9
$SPLINESEGS
 70
     8
  9
$HANDSEED
  5
C3
  9
$SURFTAB1
 70
     6
  9
$SURFTAB2
 70
     6
  9
$SURFTYPE
 70
     6
  9
$SURFU
 70
     6
  9
$SURFV
 70
     6
  9
$UCSBASE
  2

  9
$UCSNAME
  2

  9
$UCSORG
 10
0.0
 20
0.0
 30
0.0
  9
$UCSXDIR
 10
1.0
 20
0.0
 30
0.0
  9
$UCSYDIR
 10
0.0
 20
1.0
 30
0.0
  9
$UCSORTHOREF
  2

  9
$UCSORTHOVIEW
 70
     0
  9
$UCSORGTOP
 10
0.0
 20
0.0
 30
0.0
  9
$UCSORGBOTTOM
 10
0.0
 20
0.0
 30
0.0
  9
$UCSORGLEFT
 10
0.0
 20
0.0
 30
0.0
  9
$UCSORGRIGHT
 10
0.0
 20
0.0
 30
0.0
  9
$UCSORGFRONT
 10
0.0
 20
0.0
 30
0.0
  9
$UCSORGBACK
 10
0.0
 20
0.0
 30
0.0
  9
$PUCSBASE
  2

  9
$PUCSNAME
  2

  9
$PUCSORG
 10
0.0
 20
0.0
 30
0.0
  9
$PUCSXDIR
 10
1.0
 20
0.0
 30
0.0
  9
$PUCSYDIR
 10
0.0
 20
1.0
 30
0.0
  9
$PUCSORTHOREF
  2

  9
$PUCSORTHOVIEW
 70
     0
  9
$PUCSORGTOP
 10
0.0
 20
0.0
 30
0.0
  9
$PUCSORGBOTTOM
 10
0.0
 20
0.0
 30
0.0
  9
$PUCSORGLEFT
 10
0.0
 20
0.0
 30
0.0
  9
$PUCSORGRIGHT
 10
0.0
 20
0.0
 30
0.0
  9
$PUCSORGFRONT
 10
0.0
 20
0.0
 30
0.0
  9
$PUCSORGBACK
 10
0.0
 20
0.0
 30
0.0
  9
$USERI1
 70
     0
  9
$USERI2
 70
     0
  9
$USERI3
 70
     0
  9
$USERI4
 70
     0
  9
$USERI5
 70
     0
  9
$USERR1
 40
0.0
  9
$USERR2
 40
0.0
  9
$USERR3
 40
0.0
  9
$USERR4
 40
0.0
  9
$USERR5
 40
0.0
  9
$WORLDVIEW
 70
     1
  9
$SHADEDGE
 70
     3
  9
$SHADEDIF
 70
    70
  9
$TILEMODE
 70
     1
  9
$MAXACTVP
 70
    64
  9
$PINSBASE
 10
0.0
 20
0.0
 30
0.0
  9
$PLIMCHECK
 70
     0
  9
$PEXTMIN
 10
1.0000000000E+20
 20
1.0000000000E+20
 30
1.0000000000E+20
  9
$PEXTMAX
 10
-1.0000000000E+20
 20
-1.0000000000E+20
 30
-1.0000000000E+20
  9
$PLIMMIN
 10
0.0
 20
0.0
  9
$PLIMMAX
 10
12.0
 20
9.0
  9
$UNITMODE
 70
     0
  9
$VISRETAIN
 70
     1
  9
$PLINEGEN
 70
     0
  9
$PSLTSCALE
 70
     1
  9
$TREEDEPTH
 70
  3020
  9
$CMLSTYLE
  2
Standard
  9
$CMLJUST
 70
     0
  9
$CMLSCALE
 40
1.0
  9
$PROXYGRAPHICS
 70
     1
  9
$MEASUREMENT
 70
     0
  9
$CELWEIGHT
370
    -1
  9
$ENDCAPS
280
     0
  9
$JOINSTYLE
280
     0
  9
$LWDISPLAY
290
     1
  9
$INSUNITS
 70
     1
  9
$HYPERLINKBASE
  1

  9
$STYLESHEET
  1

  9
$XEDIT
290
     1
  9
$CEPSNTYPE
380
     0
  9
$PSTYLEMODE
290
     1
  9
$FINGERPRINTGUID
  2
{4fcc116a-7769-4bcd-bce2-83b8cc7721a1}
  9
$VERSIONGUID
  2
{FAEB1C32-E019-11D5-929B-00C0DF256EC4}
  9
$EXTNAMES
290
     1
  9
$PSVPSCALE
 40
0.0
  9
$OLESTARTUP
290
     0
  0
ENDSEC
  0
SECTION
  2
CLASSES
  0
CLASS
  1
ACDBDICTIONARYWDFLT
  2
AcDbDictionaryWithDefault
  3
ObjectDBX Classes
 90
        0
280
     0
281
     0
  0
CLASS
  1
VISUALSTYLE
  2
AcDbVisualStyle
  3
ObjectDBX Classes
 90
     4095
280
     0
281
     0
  0
CLASS
  1
MATERIAL
  2
AcDbMaterial
  3
ObjectDBX Classes
 90
     1153
280
     0
281
     0
  0
CLASS
  1
SCALE
  2
AcDbScale
  3
ObjectDBX Classes
 90
     1153
280
     0
281
     0
  0
CLASS
  1
TABLESTYLE
  2
AcDbTableStyle
  3
ObjectDBX Classes
 90
     4095
280
     0
281
     0
  0
CLASS
  1
MLEADERSTYLE
  2
AcDbMLeaderStyle
  3
ACDB_MLEADERSTYLE_CLASS
 90
     4095
280
     0
281
     0
  0
CLASS
  1
SUN
  2
AcDbSun
  3
SCENEOE
 90
     1153
280
     0
281
     0
  0
CLASS
  1
ACDBPLACEHOLDER
  2
AcDbPlaceHolder
  3
ObjectDBX Classes
 90
        0
280
     0
281
     0
  0
CLASS
  1
LAYOUT
  2
AcDbLayout
  3
ObjectDBX Classes
 90
        0
280
     0
281
     0
  0
ENDSEC
  0
SECTION
  2
TABLES
  0
TABLE
  2
VPORT
  5
8
330
0
100
AcDbSymbolTable
 70
     1
  0
VPORT
  5
29
330
8
100
AcDbSymbolTableRecord
100
AcDbViewportTableRecord
  2
*Active
 70
     0
 10
0.0
 20
0.0
 11
1.0
 21
1.0
 12
0.0000064422
 22
-0.0274373974
 13
0.0
 23
0.0
 14
0.5
 24
0.5
 15
0.5
 25
0.5
 16
0.0
 26
0.0
 36
1.0
 17
0.0
 27
0.0
 37
0.0
 40
2.3764079588
 41
3.4062328769
 42
50.0
 43
0.0
 44
0.0
 50
0.0
 51
0.0
 71
     0
 72
   100
 73
     1
 74
     3
 75
     0
 76
     0
 77
     0
 78
     0
281
     0
 65
     1
110
0.0
120
0.0
130
0.0
111
1.0
121
0.0
131
0.0
112
0.0
122
1.0
132
0.0
 79
     0
146
0.0
  0
ENDTAB
  0
TABLE
  2
LTYPE
  5
5
330
0
100
AcDbSymbolTable
 70
     6
  0
LTYPE
  5
14
330
5
100
AcDbSymbolTableRecord
100
AcDbLinetypeTableRecord
  2
ByBlock
 70
     0
  3

 72
    65
 73
     0
 40
0.0
  0
LTYPE
  5
15
330
5
100
AcDbSymbolTableRecord
100
AcDbLinetypeTableRecord
  2
ByLayer
 70
     0
  3

 72
    65
 73
     0
 40
0.0
  0
LTYPE
  5
16
330
5
100
AcDbSymbolTableRecord
100
AcDbLinetypeTableRecord
  2
Continuous
 70
     0
  3
Solid line
 72
    65
 73
     0
 40
0.0
  0
LTYPE
  5
5E
330
5
100
AcDbSymbolTableRecord
100
AcDbLinetypeTableRecord
  2
HIDDEN
 70
     0
  3
Hidden __ __ __ __ __ __ __ __ __ __ __ __ __ __
 72
    65
 73
     2
 40
0.075
 49
0.05
 74
     0
 49
-0.025
 74
     0
  0
LTYPE
  5
5F
330
5
100
AcDbSymbolTableRecord
100
AcDbLinetypeTableRecord
  2
PHANTOM
 70
     0
  3
Phantom ______  __  __  ______  __  __  ______
 72
    65
 73
     6
 40
0.5
 49
0.25
 74
     0
 49
-0.05
 74
     0
 49
0.05
 74
     0
 49
-0.05
 74
     0
 49
0.05
 74
     0
 49
-0.05
 74
     0
  0
LTYPE
  5
60
330
5
100
AcDbSymbolTableRecord
100
AcDbLinetypeTableRecord
  2
CENTER
 70
     0
  3
Center ____ _ ____ _ ____ _ ____ _ ____ _ ____
 72
    65
 73
     4
 40
0.4
 49
0.25
 74
     0
 49
-0.05
 74
     0
 49
0.05
 74
     0
 49
-0.05
 74
     0
  0
LTYPE
  5
61
330
5
100
AcDbSymbolTableRecord
100
AcDbLinetypeTableRecord
  2
CENTERX2
 70
     0
  3
Center (2x) ________  __  ________  __  _____
 72
    65
 73
     4
 40
0.8
 49
0.5
 74
     0
 49
-0.1
 74
     0
 49
0.1
 74
     0
 49
-0.1
 74
     0
  0
LTYPE
  5
62
330
5
100
AcDbSymbolTableRecord
100
AcDbLinetypeTableRecord
  2
DOT2
 70
     0
  3
Dot (.5x) ........................................
 72
    65
 73
     2
 40
0.025
 49
0.0
 74
     0
 49
-0.025
 74
     0
  0
ENDTAB
  0
TABLE
  2
LAYER
  5
2
330
0
100
AcDbSymbolTable
 70
     1
  0
LAYER
  5
10
330
2
100
AcDbSymbolTableRecord
100
AcDbLayerTableRecord
  2
0
 70
     0
 62
     7
  6
Continuous
370
    -3
390
F
  0
ENDTAB
  0
TABLE
  2
STYLE
  5
3
330
0
100
AcDbSymbolTable
 70
     2
  0
STYLE
  5
11
330
3
100
AcDbSymbolTableRecord
100
AcDbTextStyleTableRecord
  2
Standard
 70
     0
 40
0.0
 41
1.0
 50
0.0
 71
     0
 42
0.125
  3
txt
  4

  0
STYLE
  5
BF
330
3
100
AcDbSymbolTableRecord
100
AcDbTextStyleTableRecord
  2
SLDTEXTSTYLE0
 70
     0
 40
0.0
 41
0.7
 50
0.0
 71
     0
 42
0.125
  3
TXT
  4

  0
ENDTAB
  0
TABLE
  2
VIEW
  5
6
330
0
100
AcDbSymbolTable
 70
     0
  0
ENDTAB
  0
TABLE
  2
UCS
  5
7
330
0
100
AcDbSymbolTable
 70
     0
  0
ENDTAB
  0
TABLE
  2
APPID
  5
9
330
0
100
AcDbSymbolTable
 70
     1
  0
APPID
  5
12
330
9
100
AcDbSymbolTableRecord
100
AcDbRegAppTableRecord
  2
ACAD
 70
     0
  0
ENDTAB
  0
TABLE
  2
DIMSTYLE
  5
A
330
0
100
AcDbSymbolTable
 70
     1
100
AcDbDimStyleTable
  0
DIMSTYLE
105
27
330
A
100
AcDbSymbolTableRecord
100
AcDbDimStyleTableRecord
  2
Standard
 70
     0
178
     0
340
11
  0
ENDTAB
  0
TABLE
  2
BLOCK_RECORD
  5
1
330
0
100
AcDbSymbolTable
 70
     1
  0
BLOCK_RECORD
  5
1F
330
1
100
AcDbSymbolTableRecord
100
AcDbBlockTableRecord
  2
*Model_Space
340
22
  0
BLOCK_RECORD
  5
1B
330
1
100
AcDbSymbolTableRecord
100
AcDbBlockTableRecord
  2
*Paper_Space
340
1E
  0
BLOCK_RECORD
  5
23
330
1
100
AcDbSymbolTableRecord
100
AcDbBlockTableRecord
  2
*Paper_Space0
340
26
  0
ENDTAB
  0
ENDSEC
  0
SECTION
  2
BLOCKS
  0
BLOCK
  5
20
330
1F
100
AcDbEntity
  8
0
100
AcDbBlockBegin
  2
*Model_Space
 70
     0
 10
0.0
 20
0.0
 30
0.0
  3
*Model_Space
  1

  0
ENDBLK
  5
21
330
1F
100
AcDbEntity
  8
0
100
AcDbBlockEnd
  0
BLOCK
  5
1C
330
1B
100
AcDbEntity
 67
     1
  8
0
100
AcDbBlockBegin
  2
*Paper_Space
 70
     0
 10
0.0
 20
0.0
 30
0.0
  3
*Paper_Space
  1

  0
ENDBLK
  5
1D
330
1B
100
AcDbEntity
 67
     1
  8
0
100
AcDbBlockEnd
  0
BLOCK
  5
24
330
23
100
AcDbEntity
  8
0
100
AcDbBlockBegin
  2
*Paper_Space0
 70
     0
 10
0.0
 20
0.0
 30
0.0
  3
*Paper_Space0
  1

  0
ENDBLK
  5
25
330
23
100
AcDbEntity
  8
0
100
AcDbBlockEnd
  0
ENDSEC
  0
SECTION
  2
ENTITIES
  0
SPLINE
  5
6A
330
1F
100
AcDbEntity
  8
0
  6
Continuous
 62
     7
370
    25
100
AcDbSpline
210
0.0
220
0.0
230
1.0
 70
     8
 71
     3
 72
    18
 73
    14
 74
     0
 42
0.00000001
 43
0.00000001
 40
0.0
 40
0.0
 40
0.0
 40
0.0
 40
0.1249903135277215
 40
0.249951518094751
 40
0.3749127226617781
 40
0.4999030361895015
 40
0.572519287098012
 40
0.6445560810329989
 40
0.716124437964521
 40
0.7873375687505243
 40
0.8583103841648299
 40
0.9291589643082832
 40
1.0
 40
1.0
 40
1.0
 40
1.0
 10
2.982334150260593
 20
1.020841989549061
 30
0.0
 10
2.975383115740878
 20
1.019780625338827
 30
0.0
 10
2.961482665526019
 20
1.017658144099184
 30
0.0
 10
2.94069986241804
 20
1.014060702859837
 30
0.0
 10
2.91996116013105
 20
1.010212991480152
 30
0.0
 10
2.902202319211612
 20
1.006484110128189
 30
0.0
 10
2.887319767857521
 20
1.003537683685207
 30
0.0
 10
2.875285727907948
 20
1.001736963645303
 30
0.0
 10
2.863272819927961
 20
1.000397603087655
 30
0.0
 10
2.851274211243193
 20
0.9995483762961698
 30
0.0
 10
2.839292611918001
 20
0.9991927004705456
 30
0.0
 10
2.827324495522976
 20
0.9992887485797051
 30
0.0
 10
2.819366661173279
 20
0.9997629246092794
 30
0.0
 10
2.815387955861159
 20
1.0
 30
0.0
  0
SPLINE
  5
6C
330
1F
100
AcDbEntity
  8
0
  6
Continuous
 62
     7
370
    25
100
AcDbSpline
210
0.0
220
0.0
230
1.0
 70
     8
 71
     3
 72
    26
 73
    22
 74
     0
 42
0.00000001
 43
0.00000001
 40
0.0
 40
0.0
 40
0.0
 40
0.0
 40
0.0502410494283532
 40
0.0984157392196633
 40
0.1446393101882161
 40
0.1890421972277938
 40
0.2317715118675512
 40
0.2729922878122856
 40
0.3128882838163681
 40
0.3516620985964286
 40
0.3895343445795784
 40
0.4267416745937952
 40
0.4635335743209696
 40
0.5001680178413923
 40
0.5439795390691301
 40
0.5964610564323003
 40
0.6580637270609199
 40
0.7290650473570888
 40
0.8096454732085654
 40
0.8999280389031443
 40
0.9999999999999999
 40
0.9999999999999999
 40
0.9999999999999999
 40
0.9999999999999999
 10
2.998975239963371
 20
0.0497443441560291
 30
0.0
 10
2.999667058319012
 20
0.0531264193548591
 30
0.0
 10
3.0010222412949
 20
0.0597514686835759
 30
0.0
 10
3.003576854175229
 20
0.069359840066418
 30
0.0
 10
3.00646703718131
 20
0.0784507457411502
 30
0.0
 10
3.009729114857867
 20
0.0870174029895425
 30
0.0
 10
3.013354584257179
 20
0.0950614498076745
 30
0.0
 10
3.017346288246364
 20
0.102582254034501
 30
0.0
 10
3.02170429765158
 20
0.1095793895754701
 30
0.0
 10
3.026429022213343
 20
0.1160525708751989
 30
0.0
 10
3.031521627229738
 20
0.1219995422237689
 30
0.0
 10
3.036979029530849
 20
0.1274243806899555
 30
0.0
 10
3.04281248789936
 20
0.1323074241292144
 30
0.0
 10
3.049374629717868
 20
0.1369996186005409
 30
0.0
 10
3.057440061282763
 20
0.1413383125647827
 30
0.0
 10
3.067526535572047
 20
0.1453695325832607
 30
0.0
 10
3.079653625856085
 20
0.1492174715983945
 30
0.0
 10
3.093847693983519
 20
0.1528514087472963
 30
0.0
 10
3.110110825944808
 20
0.1562736188854705
 30
0.0
 10
3.128443866213321
 20
0.1595115315277476
 30
0.0
 10
3.141390875683432
 20
0.1613570354178653
 30
0.0
 10
3.148197294473951
 20
0.1623272418879132
 30
0.0
  0
SPLINE
  5
73
330
1F
100
AcDbEntity
  8
0
  6
Continuous
 62
     7
370
    25
100
AcDbSpline
210
0.0
220
0.0
230
1.0
 70
     8
 71
     3
 72
    19
 73
    15
 74
     0
 42
0.00000001
 43
0.00000001
 40
0.0
 40
0.0
 40
0.0
 40
0.0
 40
0.054071658634441
 40
0.1104234454858089
 40
0.1691267344364546
 40
0.2302446616290788
 40
0.293833171231381
 40
0.3599419355594166
 40
0.4286151583390146
 40
0.4998922722768851
 40
0.624920017929339
 40
0.7499461361384436
 40
0.8749722543475462
 40
1.0
 40
1.0
 40
1.0
 40
1.0
 10
-2.815387955861159
 20
1.0
 30
0.0
 10
-2.818423907711964
 20
0.9998333875053094
 30
0.0
 10
-2.824623833369162
 20
0.9994931366938972
 30
0.0
 10
-2.834135957480419
 20
0.99942817552073
 30
0.0
 10
-2.844039483339105
 20
0.9996683536391746
 30
0.0
 10
-2.854336917496923
 20
1.000250803723802
 30
0.0
 10
-2.865027816560251
 20
1.001164181805566
 30
0.0
 10
-2.876111951081216
 20
1.002414526147898
 30
0.0
 10
-2.887591421047753
 20
1.003988873037182
 30
0.0
 10
-2.902294142979946
 20
1.006400420850166
 30
0.0
 10
-2.920085357978853
 20
1.009543208597087
 30
0.0
 10
-2.940850886888231
 20
1.013221071038218
 30
0.0
 10
-2.961600814377185
 20
1.016986316861037
 30
0.0
 10
-2.975423008312802
 20
1.01955675974325
 30
0.0
 10
-2.982334150260595
 20
1.020841989549055
 30
0.0
  0
SPLINE
  5
74
330
1F
100
AcDbEntity
  8
0
  6
Continuous
 62
     7
370
    25
100
AcDbSpline
210
0.0
220
0.0
230
1.0
 70
     8
 71
     3
 72
    23
 73
    19
 74
     0
 42
0.00000001
 43
0.00000001
 40
0.0
 40
0.0
 40
0.0
 40
0.0
 40
0.0877361738996764
 40
0.168070083936436
 40
0.2410582872005833
 40
0.3067763087194689
 40
0.3653278134967061
 40
0.4168597346106609
 40
0.4615882366916026
 40
0.4998449841462478
 40
0.555039292553787
 40
0.6108092099083925
 40
0.668006797503627
 40
0.7274227273163625
 40
0.7897633220210283
 40
0.8556408988174853
 40
0.9255749309108594
 40
1.0
 40
1.0
 40
1.0
 40
1.0
 10
-3.148197294473951
 20
0.1623272418879134
 30
0.0
 10
-3.142227305229055
 20
0.1614909506284732
 30
0.0
 10
-3.13079101220542
 20
0.1598889256492422
 30
0.0
 10
-3.114460375066568
 20
0.1571141577699322
 30
0.0
 10
-3.09969585727911
 20
0.1541878773999493
 30
0.0
 10
-3.086499984378342
 20
0.1510833860802498
 30
0.0
 10
-3.074867810033267
 20
0.1478105347877275
 30
0.0
 10
-3.064800740068078
 20
0.1443588965656223
 30
0.0
 10
-3.056275943837575
 20
0.1407568253689101
 30
0.0
 10
-3.047952381462948
 20
0.136150368581179
 30
0.0
 10
-3.039711486911052
 20
0.129992308665005
 30
0.0
 10
-3.03131155287862
 20
0.1220232417166301
 30
0.0
 10
-3.023776120492665
 20
0.1128472029274922
 30
0.0
 10
-3.017086710239218
 20
0.1025030621914205
 30
0.0
 10
-3.011240493356649
 20
0.0909883354038105
 30
0.0
 10
-3.006250355936405
 20
0.078305063510189
 30
0.0
 10
-3.002035950124573
 20
0.064467642945807
 30
0.0
 10
-3.000016419336297
 20
0.0547528533561627
 30
0.0
 10
-2.998975239963373
 20
0.0497443441560284
 30
0.0
  0
SPLINE
  5
7B
330
1F
100
AcDbEntity
  8
0
  6
Continuous
 62
     7
370
    25
100
AcDbSpline
210
0.0
220
0.0
230
1.0
 70
     8
 71
     3
 72
    21
 73
    17
 74
     0
 42
0.00000001
 43
0.00000001
 40
0.0
 40
0.0
 40
0.0
 40
0.0
 40
0.0482753680214534
 40
0.0981705246194841
 40
0.1497817865830996
 40
0.2031961880700605
 40
0.2584922496490129
 40
0.3157407499025101
 40
0.3750054725594653
 40
0.4363439118706776
 40
0.4998079263817698
 40
0.5998481706311943
 40
0.6998856705969709
 40
0.7999222557847986
 40
0.8999597557505754
 40
1.0
 40
1.0
 40
1.0
 40
1.0
 10
2.733332274031563
 20
-1.0
 30
0.0
 10
2.736057893417962
 20
-0.9997918267349442
 30
0.0
 10
2.741600585188992
 20
-0.9993684953450471
 30
0.0
 10
2.75008341780415
 20
-0.9992186027395695
 30
0.0
 10
2.758853861826369
 20
-0.9994045069133778
 30
0.0
 10
2.767915510905881
 20
-0.9999651912298182
 30
0.0
 10
2.777267420298151
 20
-1.000889708432662
 30
0.0
 10
2.78691015513889
 20
-1.002180276325548
 30
0.0
 10
2.79684296193949
 20
-1.003839156483115
 30
0.0
 10
2.80706895291427
 20
-1.00585397135988
 30
0.0
 10
2.819474616711975
 20
-1.008711262858141
 30
0.0
 10
2.833962198298379
 20
-1.012277930786548
 30
0.0
 10
2.850458392556802
 20
-1.016347469856953
 30
0.0
 10
2.866932360073635
 20
-1.020505503136514
 30
0.0
 10
2.88339098953784
 20
-1.024724500545802
 30
0.0
 10
2.894347860772046
 20
-1.027597371756441
 30
0.0
 10
2.899826371531846
 20
-1.029033827064036
 30
0.0
  0
SPLINE
  5
7C
330
1F
100
AcDbEntity
  8
0
  6
Continuous
 62
     7
370
    25
100
AcDbSpline
210
0.0
220
0.0
230
1.0
 70
     8
 71
     3
 72
    23
 73
    19
 74
     0
 42
0.00000001
 43
0.00000001
 40
0.0
 40
0.0
 40
0.0
 40
0.0
 40
0.0877735752155304
 40
0.1681230883463751
 40
0.2411087432521687
 40
0.3068109897214355
 40
0.3653403188445836
 40
0.4168533982664152
 40
0.4615806846009497
 40
0.4998753414292793
 40
0.5545923604617363
 40
0.6099716520229408
 40
0.6668994216488079
 40
0.7261924839247869
 40
0.78857481132833
 40
0.8546689379148484
 40
0.9249989004124867
 40
1.0
 40
1.0
 40
1.0
 40
1.0
 10
3.136240320173111
 20
-0.1631423847428136
 30
0.0
 10
3.130302595497012
 20
-0.161978091342346
 30
0.0
 10
3.118929370607344
 20
-0.1597479827732549
 30
0.0
 10
3.102720354548187
 20
-0.1560609097000124
 30
0.0
 10
3.088095502585549
 20
-0.1522970507207598
 30
0.0
 10
3.075058872033586
 20
-0.1484289707537007
 30
0.0
 10
3.063604746769246
 20
-0.1444664006038386
 30
0.0
 10
3.053735054426258
 20
-0.140398772712869
 30
0.0
 10
3.045424635849653
 20
-0.1362529206917958
 30
0.0
 10
3.037421717625557
 20
-0.1311053174207348
 30
0.0
 10
3.02964789598082
 20
-0.1244002676112942
 30
0.0
 10
3.021879233509245
 20
-0.1158674300908148
 30
0.0
 10
3.015068011133388
 20
-0.1061585340337743
 30
0.0
 10
3.0091925108535
 20
-0.0953118982964213
 30
0.0
 10
3.004249546364406
 20
-0.0833248671129829
 30
0.0
 10
3.000251243946723
 20
-0.0702004584262968
 30
0.0
 10
2.997116316944579
 20
-0.0559464647081829
 30
0.0
 10
2.995853811015699
 20
-0.0460040483724551
 30
0.0
 10
2.99520226872637
 20
-0.0408730588438743
 30
0.0
  0
SPLINE
  5
83
330
1F
100
AcDbEntity
  8
0
  6
Continuous
 62
     7
370
    25
100
AcDbSpline
210
0.0
220
0.0
230
1.0
 70
     8
 71
     3
 72
    19
 73
    15
 74
     0
 42
0.00000001
 43
0.00000001
 40
0.0
 40
0.0
 40
0.0
 40
0.0
 40
0.1249536441303003
 40
0.2498539170617729
 40
0.3747541899932448
 40
0.4997078341235468
 40
0.5650949285493692
 40
0.6293694856742235
 40
0.692673075363777
 40
0.7551538679276838
 40
0.8169659509623649
 40
0.8782684547986781
 40
0.9392245007823131
 40
1.0
 40
1.0
 40
1.0
 40
1.0
 10
-2.899826371531848
 20
-1.029033827064035
 30
0.0
 10
-2.892900794895489
 20
-1.027546965985553
 30
0.0
 10
-2.879052599730397
 20
-1.024573878908574
 30
0.0
 10
-2.858408231911979
 20
-1.019558571154431
 30
0.0
 10
-2.837849031843013
 20
-1.014200467982591
 30
0.0
 10
-2.820703728536008
 20
-1.009164841903115
 30
0.0
 10
-2.806805517118748
 20
-1.005260834349752
 30
0.0
 10
-2.796120714960233
 20
-1.002893756115144
 30
0.0
 10
-2.785504153332003
 20
-1.001039926533808
 30
0.0
 10
-2.774946066113856
 20
-0.999734327790047
 30
0.0
 10
-2.764448812273265
 20
-0.9989646024570924
 30
0.0
 10
-2.754013351650658
 20
-0.9987466416024126
 30
0.0
 10
-2.743634639896448
 20
-0.9990302923481762
 30
0.0
 10
-2.736762998749915
 20
-0.9996770838801182
 30
0.0
 10
-2.733332274031564
 20
-0.9999999999999997
 30
0.0
  0
SPLINE
  5
84
330
1F
100
AcDbEntity
  8
0
  6
Continuous
 62
     7
370
    25
100
AcDbSpline
210
0.0
220
0.0
230
1.0
 70
     8
 71
     3
 72
    27
 73
    23
 74
     0
 42
0.00000001
 43
0.00000001
 40
0.0
 40
0.0
 40
0.0
 40
0.0
 40
0.0467362568759659
 40
0.0916482100097566
 40
0.1348261366432257
 40
0.1763716195384397
 40
0.216398672092754
 40
0.2550347525090302
 40
0.2924215479084493
 40
0.3287153795758417
 40
0.3640870624665656
 40
0.3987210583449033
 40
0.4328138050373816
 40
0.4665711904534947
 40
0.500205261717386
 40
0.544064893373473
 40
0.596541969123904
 40
0.6581170988233944
 40
0.7290862938560586
 40
0.809642073397586
 40
0.8999156438342606
 40
1.0
 40
1.0
 40
1.0
 40
1.0
 10
-2.995202268726371
 20
-0.0408730588438732
 30
0.0
 10
-2.995589067440187
 20
-0.0440719356906456
 30
0.0
 10
-2.996347566561104
 20
-0.0503448243780385
 30
0.0
 10
-2.997955195551994
 20
-0.0595032843779568
 30
0.0
 10
-2.999885080996311
 20
-0.0682316652687901
 30
0.0
 10
-3.00216896880342
 20
-0.0765266425876744
 30
0.0
 10
-3.0047992777159
 20
-0.0843890917076261
 30
0.0
 10
-3.007778439567002
 20
-0.0918187131788238
 30
0.0
 10
-3.011106372814031
 20
-0.098815392765878
 30
0.0
 10
-3.014783712782334
 20
-0.1053786819465676
 30
0.0
 10
-3.018810563114743
 20
-0.1115084136449686
 30
0.0
 10
-3.023188040754326
 20
-0.1172027424169115
 30
0.0
 10
-3.0279130587755
 20
-0.122465258653064
 30
0.0
 10
-3.032996925494895
 20
-0.1272792532992728
 30
0.0
 10
-3.038937848392212
 20
-0.1321463255213067
 30
0.0
 10
-3.046556308243149
 20
-0.1369137348638583
 30
0.0
 10
-3.056406987561595
 20
-0.1415828634247471
 30
0.0
 10
-3.068319204593584
 20
-0.1461636105071982
 30
0.0
 10
-3.082321227346213
 20
-0.1506279417354509
 30
0.0
 10
-3.098415510656788
 20
-0.1549779578125119
 30
0.0
 10
-3.116601394901503
 20
-0.159242330102171
 30
0.0
 10
-3.129472885442662
 20
-0.1617984535011233
 30
0.0
 10
-3.136240320173111
 20
-0.1631423847428135
 30
0.0
  0
CIRCLE
  5
92
330
1F
100
AcDbEntity
  8
0
  6
Continuous
 62
     7
370
    25
100
AcDbCircle
 10
-1.0
 20
-0.5
 30
0.0
 40
0.0895000000000002
  0
CIRCLE
  5
93
330
1F
100
AcDbEntity
  8
0
  6
Continuous
 62
     7
370
    25
100
AcDbCircle
 10
1.0
 20
-0.5
 30
0.0
 40
0.0894999999999999
  0
CIRCLE
  5
94
330
1F
100
AcDbEntity
  8
0
  6
Continuous
 62
     7
370
    25
100
AcDbCircle
 10
1.0
 20
0.5
 30
0.0
 40
0.0895000000000001
  0
CIRCLE
  5
95
330
1F
100
AcDbEntity
  8
0
  6
Continuous
 62
     7
370
    25
100
AcDbCircle
 10
-1.0
 20
0.5
 30
0.0
 40
0.0895
  0
LINE
  5
9B
330
1F
100
AcDbEntity
  8
0
  6
Continuous
 62
     7
370
    25
100
AcDbLine
 10
-3.9662844426
 20
0.394490598
 30
0.0
 11
-3.838384505
 21
1.0565061601
 31
0.0
  0
LINE
  5
9C
330
1F
100
AcDbEntity
  8
0
  6
Continuous
 62
     7
370
    25
100
AcDbLine
 10
-3.7229995602
 20
1.1361301622
 30
0.0
 11
-2.9823341503
 21
1.0208419895
 31
0.0
  0
LINE
  5
9E
330
1F
100
AcDbEntity
  8
0
  6
Continuous
 62
     7
370
    25
100
AcDbLine
 10
-3.8816600604
 20
0.2764942879
 30
0.0
 11
-3.1481972945
 21
0.1623272419
 31
0.0
  0
LINE
  5
A7
330
1F
100
AcDbEntity
  8
0
  6
Continuous
 62
     7
370
    25
100
AcDbLine
 10
3.9361195633
 20
-0.4460679042
 30
0.0
 11
3.7524508729
 21
-1.1187741813
 31
0.0
  0
LINE
  5
A8
330
1F
100
AcDbEntity
  8
0
  6
Continuous
 62
     7
370
    25
100
AcDbLine
 10
3.6328055484
 20
-1.1898188445
 30
0.0
 11
2.8998263715
 21
-1.0290338271
 31
0.0
  0
LINE
  5
A9
330
1F
100
AcDbEntity
  8
0
  6
Continuous
 62
     7
370
    25
100
AcDbLine
 10
3.8593270027
 20
-0.3217574021
 30
0.0
 11
3.1362403202
 21
-0.1631423847
 31
0.0
  0
LINE
  5
AB
330
1F
100
AcDbEntity
  8
0
  6
Continuous
 62
     7
370
    25
100
AcDbLine
 10
3.838384505
 20
1.0565061601
 30
0.0
 11
3.9662844426
 21
0.394490598
 31
0.0
  0
LINE
  5
AC
330
1F
100
AcDbEntity
  8
0
  6
Continuous
 62
     7
370
    25
100
AcDbLine
 10
3.7229995602
 20
1.1361301622
 30
0.0
 11
2.9823341503
 21
1.0208419895
 31
0.0
  0
LINE
  5
AD
330
1F
100
AcDbEntity
  8
0
  6
Continuous
 62
     7
370
    25
100
AcDbLine
 10
3.8816600604
 20
0.2764942879
 30
0.0
 11
3.1481972945
 21
0.1623272419
 31
0.0
  0
LINE
  5
AE
330
1F
100
AcDbEntity
  8
0
  6
Continuous
 62
     7
370
    25
100
AcDbLine
 10
-3.7524508729
 20
-1.1187741813
 30
0.0
 11
-3.9361195633
 21
-0.4460679042
 31
0.0
  0
LINE
  5
AF
330
1F
100
AcDbEntity
  8
0
  6
Continuous
 62
     7
370
    25
100
AcDbLine
 10
-3.8593270027
 20
-0.3217574021
 30
0.0
 11
-3.1362403202
 21
-0.1631423847
 31
0.0
  0
LINE
  5
B0
330
1F
100
AcDbEntity
  8
0
  6
Continuous
 62
     7
370
    25
100
AcDbLine
 10
-3.6328055484
 20
-1.1898188445
 30
0.0
 11
-2.8998263715
 21
-1.0290338271
 31
0.0
  0
LINE
  5
B2
330
1F
100
AcDbEntity
  8
0
  6
Continuous
 62
     7
370
    25
100
AcDbLine
 10
2.8153879559
 20
1.0
 30
0.0
 11
-2.8153879559
 21
1.0
 31
0.0
  0
LINE
  5
B4
330
1F
100
AcDbEntity
  8
0
  6
Continuous
 62
     7
370
    25
100
AcDbLine
 10
2.733332274
 20
-1.0
 30
0.0
 11
-2.733332274
 21
-1.0
 31
0.0
  0
ARC
  5
B5
330
1F
100
AcDbEntity
  8
0
  6
Continuous
 62
     7
370
    25
100
AcDbCircle
 10
-3.8670440823
 20
0.3763200853
 30
0.0
 40
0.1008901216231036
100
AcDbArc
 50
169.6242989279
 51
261.6702337381
  0
ARC
  5
B6
330
1F
100
AcDbEntity
  8
0
  6
Continuous
 62
     7
370
    25
100
AcDbCircle
 10
-3.739387407
 20
1.0364626927
 30
0.0
 40
0.1010057721179127
100
AcDbArc
 50
80.6626768669
 51
168.554319013
  0
ARC
  5
B7
330
1F
100
AcDbEntity
  8
0
  6
Continuous
 62
     7
370
    25
100
AcDbCircle
 10
-3.1576544099
 20
-0.0022497134
 30
0.0
 40
0.1669804209545801
100
AcDbArc
 50
346.6261067116
 51
18.142304911
  0
ARC
  5
B8
330
1F
100
AcDbEntity
  8
0
  6
Continuous
 62
     7
370
    25
100
AcDbCircle
 10
3.1576544099
 20
-0.0022497134
 30
0.0
 40
0.1669804209545695
100
AcDbArc
 50
161.857695089
 51
193.3738932884
  0
ARC
  5
B9
330
1F
100
AcDbEntity
  8
0
  6
Continuous
 62
     7
370
    25
100
AcDbCircle
 10
3.8385994224
 20
-0.4204362982
 30
0.0
 40
0.1008323217501959
100
AcDbArc
 50
345.2737958844
 51
78.1374336188
  0
ARC
  5
BA
330
1F
100
AcDbEntity
  8
0
  6
Continuous
 62
     7
370
    25
100
AcDbCircle
 10
3.6552458763
 20
-1.091341446
 30
0.0
 40
0.101001813521406
100
AcDbArc
 50
257.1630411479
 51
344.2401227851
  0
ARC
  5
BB
330
1F
100
AcDbEntity
  8
0
  6
Continuous
 62
     7
370
    25
100
AcDbCircle
 10
3.739387407
 20
1.0364626927
 30
0.0
 40
0.1010057721179127
100
AcDbArc
 50
11.445680987
 51
99.3373231331
  0
ARC
  5
BC
330
1F
100
AcDbEntity
  8
0
  6
Continuous
 62
     7
370
    25
100
AcDbCircle
 10
3.8671324158
 20
0.3762567345
 30
0.0
 40
0.1008146725022959
100
AcDbArc
 50
278.285309382
 51
10.420157952
  0
ARC
  5
BD
330
1F
100
AcDbEntity
  8
0
  6
Continuous
 62
     7
370
    25
100
AcDbCircle
 10
-3.6552458763
 20
-1.091341446
 30
0.0
 40
0.1010018135214046
100
AcDbArc
 50
195.7598772149
 51
282.8369588521
  0
ARC
  5
BE
330
1F
100
AcDbEntity
  8
0
  6
Continuous
 62
     7
370
    25
100
AcDbCircle
 10
-3.8386895448
 20
-0.4203806253
 30
0.0
 40
0.1007593410503358
100
AcDbArc
 50
101.8189213963
 51
194.7698491005
  0
MTEXT
  5
C0
330
1F
100
AcDbEntity
  8
0
  6
Continuous
 62
     7
100
AcDbMText
 10
-3.9679342039
 20
-1.2324836687
 30
0.0
 40
0.1903
 41
0.0
 71
     1
 72
     1
  1
SOLIDWORKS Educational Product.
  7
SLDTEXTSTYLE0
 73
     1
 44
1.0
  0
MTEXT
  5
C1
330
1F
100
AcDbEntity
  8
0
  6
Continuous
 62
     7
100
AcDbMText
 10
-3.9679342039
 20
-1.5179336687
 30
0.0
 40
0.1903
 41
0.0
 71
     1
 72
     1
  1
For Instructional Use Only.
  7
SLDTEXTSTYLE0
 73
     1
 44
1.0
  0
ENDSEC
  0
SECTION
  2
OBJECTS
  0
DICTIONARY
  5
C
330
0
100
AcDbDictionary
281
     1
  3
ACAD_GROUP
350
D
  3
ACAD_LAYOUT
350
1A
  3
ACAD_MLINESTYLE
350
17
  3
ACAD_PLOTSETTINGS
350
19
  3
ACAD_PLOTSTYLENAME
350
E
  3
ACAD_SCALELIST
350
47
  3
DWGPROPS
350
C2
  0
DICTIONARY
  5
D
102
{ACAD_REACTORS
330
C
102
}
330
C
100
AcDbDictionary
281
     1
  0
DICTIONARY
  5
1A
102
{ACAD_REACTORS
330
C
102
}
330
C
100
AcDbDictionary
281
     1
  3
Layout1
350
1E
  3
Layout2
350
26
  3
Model
350
22
  0
DICTIONARY
  5
17
102
{ACAD_REACTORS
330
C
102
}
330
C
100
AcDbDictionary
281
     1
  3
Standard
350
18
  0
DICTIONARY
  5
19
102
{ACAD_REACTORS
330
C
102
}
330
C
100
AcDbDictionary
281
     1
  0
ACDBDICTIONARYWDFLT
  5
E
102
{ACAD_REACTORS
330
C
102
}
330
C
100
AcDbDictionary
281
     1
  3
Normal
350
F
100
AcDbDictionaryWithDefault
340
F
  0
DICTIONARY
  5
47
102
{ACAD_REACTORS
330
C
102
}
330
C
100
AcDbDictionary
281
     1
  3
A0
350
48
  3
A1
350
49
  3
A2
350
4A
  3
A3
350
4B
  3
A4
350
4C
  3
A5
350
4D
  3
A6
350
4E
  3
A7
350
4F
  3
A8
350
50
  3
A9
350
51
  3
B1
350
52
  3
B2
350
53
  3
B3
350
54
  3
B4
350
55
  3
B5
350
56
  3
B6
350
57
  3
B7
350
58
  0
XRECORD
  5
C2
102
{ACAD_REACTORS
330
C
102
}
330
C
100
AcDbXrecord
280
     1
  1
DWGPROPS COOKIE
  2

  3

  4

  6

  7

  8
nr308
  9

300
=
301
=
302
=
303
=
304
=
305
=
306
=
307
=
308
=
309
=
 40
0.0
 41
2460358.740488704
 42
2460358.7410036
  1

 90
        0
  0
LAYOUT
  5
1E
102
{ACAD_REACTORS
330
1A
102
}
330
1A
100
AcDbPlotSettings
  1

  2
none_device
  4

  6

 40
0.0
 41
0.0
 42
0.0
 43
0.0
 44
0.0
 45
0.0
 46
0.0
 47
0.0
 48
0.0
 49
0.0
140
0.0
141
0.0
142
1.0
143
1.0
 70
   688
 72
     0
 73
     0
 74
     5
  7

 75
    16
147
1.0
148
0.0
149
0.0
100
AcDbLayout
  1
Layout1
 70
     1
 71
     1
 10
0.0
 20
0.0
 11
12.0
 21
9.0
 12
0.0
 22
0.0
 32
0.0
 14
1.0000000000E+20
 24
1.0000000000E+20
 34
1.0000000000E+20
 15
-1.0000000000E+20
 25
-1.0000000000E+20
 35
-1.0000000000E+20
146
0.0
 13
0.0
 23
0.0
 33
0.0
 16
1.0
 26
0.0
 36
0.0
 17
0.0
 27
1.0
 37
0.0
 76
     0
330
1B
  0
LAYOUT
  5
26
102
{ACAD_REACTORS
330
1A
102
}
330
1A
100
AcDbPlotSettings
  1

  2
none_device
  4

  6

 40
0.0
 41
0.0
 42
0.0
 43
0.0
 44
0.0
 45
0.0
 46
0.0
 47
0.0
 48
0.0
 49
0.0
140
0.0
141
0.0
142
1.0
143
1.0
 70
   688
 72
     0
 73
     0
 74
     5
  7

 75
    16
147
1.0
148
0.0
149
0.0
100
AcDbLayout
  1
Layout2
 70
     1
 71
     2
 10
0.0
 20
0.0
 11
0.0
 21
0.0
 12
0.0
 22
0.0
 32
0.0
 14
0.0
 24
0.0
 34
0.0
 15
0.0
 25
0.0
 35
0.0
146
0.0
 13
0.0
 23
0.0
 33
0.0
 16
1.0
 26
0.0
 36
0.0
 17
0.0
 27
1.0
 37
0.0
 76
     0
330
23
  0
LAYOUT
  5
22
102
{ACAD_REACTORS
330
1A
102
}
330
1A
100
AcDbPlotSettings
  1

  2
none_device
  4
ANSI_A_(11.00_x_8.50_Inches)
  6

 40
6.35
 41
19.05
 42
6.35000508
 43
19.05000254
 44
279.4
 45
215.9
 46
133.3497729164
 47
89.8563321806
 48
0.0
 49
0.0
140
0.0
141
0.0
142
1.3722483489
143
1.0
 70
  1696
 72
     0
 73
     0
 74
     0
  7

 75
     0
147
0.5913241897
148
-39.4088153714
149
0.0
100
AcDbLayout
  1
Model
 70
     1
 71
     0
 10
0.0
 20
0.0
 11
12.0
 21
9.0
 12
0.0
 22
0.0
 32
0.0
 14
-3.9679342039
 24
-1.1923432595
 34
0.0
 15
3.9679470883
 25
1.1374684648
 35
0.0
146
0.0
 13
0.0
 23
0.0
 33
0.0
 16
1.0
 26
0.0
 36
0.0
 17
0.0
 27
1.0
 37
0.0
 76
     0
330
1F
331
29
  0
MLINESTYLE
  5
18
102
{ACAD_REACTORS
330
17
102
}
330
17
100
AcDbMlineStyle
  2
Standard
 70
     0
  3

 62
   256
 51
90.0
 52
90.0
 71
     2
 49
0.5
 62
   256
  6
BYLAYER
 49
-0.5
 62
   256
  6
BYLAYER
  0
ACDBPLACEHOLDER
  5
F
102
{ACAD_REACTORS
330
E
102
}
330
E
  0
SCALE
  5
48
102
{ACAD_REACTORS
330
47
102
}
330
47
100
AcDbScale
 70
     0
300
1:1
140
1.0
141
1.0
290
     1
  0
SCALE
  5
49
102
{ACAD_REACTORS
330
47
102
}
330
47
100
AcDbScale
 70
     0
300
1/128" = 1'-0"
140
0.0078125
141
12.0
290
     0
  0
SCALE
  5
4A
102
{ACAD_REACTORS
330
47
102
}
330
47
100
AcDbScale
 70
     0
300
1/64" = 1'-0"
140
0.015625
141
12.0
290
     0
  0
SCALE
  5
4B
102
{ACAD_REACTORS
330
47
102
}
330
47
100
AcDbScale
 70
     0
300
1/32" = 1'-0"
140
0.03125
141
12.0
290
     0
  0
SCALE
  5
4C
102
{ACAD_REACTORS
330
47
102
}
330
47
100
AcDbScale
 70
     0
300
1/16" = 1'-0"
140
0.0625
141
12.0
290
     0
  0
SCALE
  5
4D
102
{ACAD_REACTORS
330
47
102
}
330
47
100
AcDbScale
 70
     0
300
3/32" = 1'-0"
140
0.09375
141
12.0
290
     0
  0
SCALE
  5
4E
102
{ACAD_REACTORS
330
47
102
}
330
47
100
AcDbScale
 70
     0
300
1/8" = 1'-0"
140
0.125
141
12.0
290
     0
  0
SCALE
  5
4F
102
{ACAD_REACTORS
330
47
102
}
330
47
100
AcDbScale
 70
     0
300
3/16" = 1'-0"
140
0.1875
141
12.0
290
     0
  0
SCALE
  5
50
102
{ACAD_REACTORS
330
47
102
}
330
47
100
AcDbScale
 70
     0
300
1/4" = 1'-0"
140
0.25
141
12.0
290
     0
  0
SCALE
  5
51
102
{ACAD_REACTORS
330
47
102
}
330
47
100
AcDbScale
 70
     0
300
3/8" = 1'-0"
140
0.375
141
12.0
290
     0
  0
SCALE
  5
52
102
{ACAD_REACTORS
330
47
102
}
330
47
100
AcDbScale
 70
     0
300
1/2" = 1'-0"
140
0.5
141
12.0
290
     0
  0
SCALE
  5
53
102
{ACAD_REACTORS
330
47
102
}
330
47
100
AcDbScale
 70
     0
300
3/4" = 1'-0"
140
0.75
141
12.0
290
     0
  0
SCALE
  5
54
102
{ACAD_REACTORS
330
47
102
}
330
47
100
AcDbScale
 70
     0
300
1" = 1'-0"
140
1.0
141
12.0
290
     0
  0
SCALE
  5
55
102
{ACAD_REACTORS
330
47
102
}
330
47
100
AcDbScale
 70
     0
300
1-1/2" = 1'-0"
140
1.5
141
12.0
290
     0
  0
SCALE
  5
56
102
{ACAD_REACTORS
330
47
102
}
330
47
100
AcDbScale
 70
     0
300
3" = 1'-0"
140
3.0
141
12.0
290
     0
  0
SCALE
  5
57
102
{ACAD_REACTORS
330
47
102
}
330
47
100
AcDbScale
 70
     0
300
6" = 1'-0"
140
6.0
141
12.0
290
     0
  0
SCALE
  5
58
102
{ACAD_REACTORS
330
47
102
}
330
47
100
AcDbScale
 70
     0
300
1'-0" = 1'-0"
140
12.0
141
12.0
290
     0
  0
ENDSEC
  0
EOF
